# xmcd
#
# Track frame offsets: 
#        150
#        16214
#        33026
#        48511
#        65835
#        84203
#        104900
#        122335
#        142126
#        161752
#        179362
#        193802
#        213250
#        235464
#        261329
#
# Disc length: 3775 seconds
#
# Revision: 16
# Processed by: cddbd v1.5.2PL0 Copyright (c) Steve Scherf et al.
# Submitted via: ExactAudioCopy v1.3
#
DISCID=da0ebd0f
DTITLE=Lenny Kravitz - Greatest Hits
DYEAR=2000
DGENRE=Rock Pop
TTITLE0=Are You Gonna Go My Way
TTITLE1=Fly Away
TTITLE2=Rock And Roll Is Dead
TTITLE3=Again
TTITLE4=It Ain't Over Til It's Over
TTITLE5=Can't Get You Off My Mind
TTITLE6=Mr. Cab Driver
TTITLE7=American Woman
TTITLE8=Stand By My Woman
TTITLE9=Always On The Run
TTITLE10=Heaven Help
TTITLE11=I Belong To You
TTITLE12=Believe
TTITLE13=Let Love Rule
TTITLE14=Black Velveteen
EXTD=
EXTT0=
EXTT1=
EXTT2=
EXTT3=
EXTT4=
EXTT5=
EXTT6=
EXTT7=
EXTT8=
EXTT9=
EXTT10=
EXTT11=
EXTT12=
EXTT13=
EXTT14=
PLAYORDER=
